<svg xmlns="http://www.w3.org/2000/svg" width="18" height="18" viewBox="0 0 18 18">
    <path fill="#333E44" fill-rule="nonzero" d="M9 0C4.03 0 0 4.131 0 9.229c0 4.076 2.579 7.535 6.155 8.755.45.085.615-.2.615-.445 0-.219-.008-.799-.013-1.569-2.503.558-3.032-1.237-3.032-1.237-.409-1.066-.999-1.35-.999-1.35-.817-.572.062-.56.062-.56.903.064 1.378.95 1.378.95.804 1.41 2.107 1.003 2.62.767.082-.597.314-1.003.572-1.234-2-.233-4.1-1.024-4.1-4.56 0-1.008.35-1.831.926-2.477-.092-.233-.401-1.171.088-2.442 0 0 .756-.248 2.475.946a8.44 8.44 0 0 1 2.254-.31 8.45 8.45 0 0 1 2.253.31c1.718-1.194 2.472-.946 2.472-.946.491 1.27.182 2.209.09 2.442.577.646.925 1.47.925 2.477 0 3.544-2.104 4.325-4.11 4.553.324.285.612.848.612 1.71 0 1.233-.012 2.228-.012 2.53 0 .247.162.534.62.444C15.423 16.76 18 13.303 18 9.229 18 4.13 13.97 0 9 0" opacity=".4"/>
</svg>
