<svg xmlns="http://www.w3.org/2000/svg" width="18" height="18" viewBox="0 0 18 18">
    <path fill="#333E44" fill-rule="nonzero" d="M18 18h-3.978v-6.328c0-1.656-.623-2.787-1.991-2.787-1.047 0-1.629.763-1.9 1.499-.101.264-.085.631-.085.999V18H6.104s.051-11.209 0-12.228h3.942v1.92c.232-.84 1.492-2.037 3.502-2.037C16.04 5.655 18 7.413 18 11.2V18zM2.119 4.243h-.026C.823 4.243 0 3.308 0 2.123 0 .915.848 0 2.143 0c1.294 0 2.09.913 2.116 2.12 0 1.184-.822 2.123-2.14 2.123zM.454 5.773h3.508V18H.454V5.772z" opacity=".4"/>
</svg>
