<svg xmlns="http://www.w3.org/2000/svg" width="18" height="18" viewBox="0 0 18 18">
    <g fill="none" fill-rule="evenodd" opacity=".4">
        <path fill="#333E44" fill-rule="nonzero" d="M2.25 0A2.25 2.25 0 0 0 0 2.25v13.5A2.25 2.25 0 0 0 2.25 18h13.5A2.25 2.25 0 0 0 18 15.75V2.25A2.25 2.25 0 0 0 15.75 0H2.25z"/>
        <path fill="#FFF" d="M2.25 3.375V13.5c0 .622.503 1.125 1.125 1.125H6.75c.622 0 1.125-.503 1.125-1.125V3.375c0-.622-.503-1.125-1.125-1.125H3.375c-.622 0-1.125.503-1.125 1.125zM10.125 3.375V9c0 .622.503 1.125 1.125 1.125h3.375c.622 0 1.125-.503 1.125-1.125V3.375c0-.622-.503-1.125-1.125-1.125H11.25c-.622 0-1.125.503-1.125 1.125z"/>
    </g>
</svg>
